<svg width="1024" height="1024" viewBox="0 0 1024 1024" fill="none" xmlns="http://www.w3.org/2000/svg">
<g filter="url(#filter0_df_5_11)">
<rect x="100" y="100" width="824" height="824" rx="184" fill="url(#paint0_linear_5_11)"/>
<rect x="100.5" y="100.5" width="823" height="823" rx="183.5" stroke="#818180"/>
</g>
<g filter="url(#filter1_f_5_11)">
<path d="M924 633.28C924 732.859 924 782.649 905.237 820.949C887.272 857.619 857.619 887.272 820.949 905.237C782.649 924 732.859 924 633.28 924L336 924L257.345 845.345L336 766.691L724.031 766.691C738.643 766.691 745.949 766.691 751.569 763.938C756.95 761.302 761.302 756.95 763.938 751.569C766.691 745.949 766.691 738.643 766.691 724.031L766.691 300.522C766.691 286.107 766.691 278.9 763.989 273.324C761.402 267.984 757.128 263.645 751.828 260.978C746.293 258.193 739.087 258.084 724.674 257.867L687.691 257.309L766.345 178.655L687.691 100C736.315 100 760.628 100 780.743 104.568C849.813 120.251 903.749 174.187 919.432 243.257C924 263.372 924 287.685 924 336.309L924 633.28Z" fill="url(#paint1_linear_5_11)"/>
</g>
<g filter="url(#filter2_f_5_11)">
<path d="M100 390.72C100 291.141 100 241.351 118.763 203.051C136.728 166.381 166.381 136.728 203.051 118.763C241.351 100 291.141 100 390.72 100H687.691L766.345 178.655L687.691 257.309H299.972C285.359 257.309 278.052 257.309 272.432 260.063C267.051 262.699 262.7 267.051 260.064 272.432C257.311 278.052 257.311 285.359 257.312 299.972L257.342 724.034C257.343 738.645 257.344 745.951 260.097 751.57C262.734 756.951 267.085 761.302 272.466 763.938C278.086 766.691 285.391 766.691 300.002 766.691H336L257.345 845.345L336 924C287.664 924 263.495 924 243.494 919.486C174.232 903.855 120.145 849.768 104.514 780.506C100 760.505 100 736.336 100 688V390.72Z" fill="url(#paint2_linear_5_11)"/>
</g>
<g filter="url(#filter3_df_5_11)">
<circle cx="780.982" cy="138.982" r="14.9818" fill="white"/>
</g>
<g filter="url(#filter4_df_5_11)">
<circle cx="241.982" cy="884.982" r="14.9818" fill="white"/>
</g>
<g filter="url(#filter5_f_5_11)">
<rect x="101" y="101" width="822" height="822" rx="183" stroke="url(#paint3_linear_5_11)" stroke-width="2"/>
</g>
<g filter="url(#filter6_f_5_11)">
<rect x="257" y="257" width="510" height="510" rx="27" stroke="url(#paint4_linear_5_11)" stroke-width="5"/>
</g>
<g filter="url(#filter7_d_5_11)">
<path d="M437.988 363.199C445.795 355.392 458.453 355.392 466.261 363.199L586.918 483.856L597.529 494.416C607.297 504.135 607.358 519.926 597.666 529.721L587 540.5L466.213 661.009C458.399 668.805 445.748 668.798 437.943 660.993C430.132 653.182 430.132 640.518 437.943 632.707L556.881 513.769C557.858 512.792 557.858 511.208 556.88 510.232L437.996 391.48C430.181 383.674 430.177 371.009 437.988 363.199Z" fill="url(#paint5_linear_5_11)"/>
</g>
<g filter="url(#filter8_f_5_11)">
<path d="M598 529.4L466.21 661C458.399 668.8 445.746 668.795 437.94 660.99V660.99C430.131 653.181 430.131 640.519 437.94 632.71L558.65 512" stroke="url(#paint6_linear_5_11)" stroke-width="2"/>
</g>
<g filter="url(#filter9_f_5_11)">
<path d="M486.127 382.847L466.419 363.14C458.61 355.331 445.949 355.331 438.14 363.14V363.14C430.331 370.949 430.331 383.61 438.14 391.419L457.847 411.126" stroke="url(#paint7_linear_5_11)" stroke-width="2"/>
</g>
<defs>
<filter id="filter0_df_5_11" x="78" y="89" width="868" height="868" filterUnits="userSpaceOnUse" color-interpolation-filters="sRGB">
<feFlood flood-opacity="0" result="BackgroundImageFix"/>
<feColorMatrix in="SourceAlpha" type="matrix" values="0 0 0 0 0 0 0 0 0 0 0 0 0 0 0 0 0 0 127 0" result="hardAlpha"/>
<feOffset dy="11"/>
<feGaussianBlur stdDeviation="11"/>
<feColorMatrix type="matrix" values="0 0 0 0 0 0 0 0 0 0 0 0 0 0 0 0 0 0 0.28 0"/>
<feBlend mode="normal" in2="BackgroundImageFix" result="effect1_dropShadow_5_11"/>
<feBlend mode="normal" in="SourceGraphic" in2="effect1_dropShadow_5_11" result="shape"/>
<feGaussianBlur stdDeviation="1" result="effect2_foregroundBlur_5_11"/>
</filter>
<filter id="filter1_f_5_11" x="255.345" y="98" width="670.655" height="828" filterUnits="userSpaceOnUse" color-interpolation-filters="sRGB">
<feFlood flood-opacity="0" result="BackgroundImageFix"/>
<feBlend mode="normal" in="SourceGraphic" in2="BackgroundImageFix" result="shape"/>
<feGaussianBlur stdDeviation="1" result="effect1_foregroundBlur_5_11"/>
</filter>
<filter id="filter2_f_5_11" x="98" y="98" width="670.345" height="828" filterUnits="userSpaceOnUse" color-interpolation-filters="sRGB">
<feFlood flood-opacity="0" result="BackgroundImageFix"/>
<feBlend mode="normal" in="SourceGraphic" in2="BackgroundImageFix" result="shape"/>
<feGaussianBlur stdDeviation="1" result="effect1_foregroundBlur_5_11"/>
</filter>
<filter id="filter3_df_5_11" x="759" y="118" width="47.9636" height="47.9636" filterUnits="userSpaceOnUse" color-interpolation-filters="sRGB">
<feFlood flood-opacity="0" result="BackgroundImageFix"/>
<feColorMatrix in="SourceAlpha" type="matrix" values="0 0 0 0 0 0 0 0 0 0 0 0 0 0 0 0 0 0 127 0" result="hardAlpha"/>
<feOffset dx="2" dy="3"/>
<feGaussianBlur stdDeviation="4.5"/>
<feComposite in2="hardAlpha" operator="out"/>
<feColorMatrix type="matrix" values="0 0 0 0 0 0 0 0 0 0 0 0 0 0 0 0 0 0 0.25 0"/>
<feBlend mode="normal" in2="BackgroundImageFix" result="effect1_dropShadow_5_11"/>
<feBlend mode="normal" in="SourceGraphic" in2="effect1_dropShadow_5_11" result="shape"/>
<feGaussianBlur stdDeviation="1" result="effect2_foregroundBlur_5_11"/>
</filter>
<filter id="filter4_df_5_11" x="220" y="864" width="47.9636" height="47.9636" filterUnits="userSpaceOnUse" color-interpolation-filters="sRGB">
<feFlood flood-opacity="0" result="BackgroundImageFix"/>
<feColorMatrix in="SourceAlpha" type="matrix" values="0 0 0 0 0 0 0 0 0 0 0 0 0 0 0 0 0 0 127 0" result="hardAlpha"/>
<feOffset dx="2" dy="3"/>
<feGaussianBlur stdDeviation="4.5"/>
<feComposite in2="hardAlpha" operator="out"/>
<feColorMatrix type="matrix" values="0 0 0 0 0 0 0 0 0 0 0 0 0 0 0 0 0 0 0.25 0"/>
<feBlend mode="normal" in2="BackgroundImageFix" result="effect1_dropShadow_5_11"/>
<feBlend mode="normal" in="SourceGraphic" in2="effect1_dropShadow_5_11" result="shape"/>
<feGaussianBlur stdDeviation="1" result="effect2_foregroundBlur_5_11"/>
</filter>
<filter id="filter5_f_5_11" x="98" y="98" width="828" height="828" filterUnits="userSpaceOnUse" color-interpolation-filters="sRGB">
<feFlood flood-opacity="0" result="BackgroundImageFix"/>
<feBlend mode="normal" in="SourceGraphic" in2="BackgroundImageFix" result="shape"/>
<feGaussianBlur stdDeviation="1" result="effect1_foregroundBlur_5_11"/>
</filter>
<filter id="filter6_f_5_11" x="250.5" y="250.5" width="523" height="523" filterUnits="userSpaceOnUse" color-interpolation-filters="sRGB">
<feFlood flood-opacity="0" result="BackgroundImageFix"/>
<feBlend mode="normal" in="SourceGraphic" in2="BackgroundImageFix" result="shape"/>
<feGaussianBlur stdDeviation="2" result="effect1_foregroundBlur_5_11"/>
</filter>
<filter id="filter7_d_5_11" x="410.085" y="346.344" width="216.81" height="353.508" filterUnits="userSpaceOnUse" color-interpolation-filters="sRGB">
<feFlood flood-opacity="0" result="BackgroundImageFix"/>
<feColorMatrix in="SourceAlpha" type="matrix" values="0 0 0 0 0 0 0 0 0 0 0 0 0 0 0 0 0 0 127 0" result="hardAlpha"/>
<feOffset dy="11"/>
<feGaussianBlur stdDeviation="11"/>
<feComposite in2="hardAlpha" operator="out"/>
<feColorMatrix type="matrix" values="0 0 0 0 0 0 0 0 0 0 0 0 0 0 0 0 0 0 0.28 0"/>
<feBlend mode="normal" in2="BackgroundImageFix" result="effect1_dropShadow_5_11"/>
<feBlend mode="normal" in="SourceGraphic" in2="effect1_dropShadow_5_11" result="shape"/>
</filter>
<filter id="filter8_f_5_11" x="427.083" y="507.293" width="175.624" height="164.554" filterUnits="userSpaceOnUse" color-interpolation-filters="sRGB">
<feFlood flood-opacity="0" result="BackgroundImageFix"/>
<feBlend mode="normal" in="SourceGraphic" in2="BackgroundImageFix" result="shape"/>
<feGaussianBlur stdDeviation="2" result="effect1_foregroundBlur_5_11"/>
</filter>
<filter id="filter9_f_5_11" x="427.283" y="352.283" width="63.5507" height="63.5507" filterUnits="userSpaceOnUse" color-interpolation-filters="sRGB">
<feFlood flood-opacity="0" result="BackgroundImageFix"/>
<feBlend mode="normal" in="SourceGraphic" in2="BackgroundImageFix" result="shape"/>
<feGaussianBlur stdDeviation="2" result="effect1_foregroundBlur_5_11"/>
</filter>
<linearGradient id="paint0_linear_5_11" x1="512" y1="100" x2="512" y2="924" gradientUnits="userSpaceOnUse">
<stop stop-color="#B1AB96"/>
<stop offset="0.489583" stop-color="#484848"/>
<stop offset="1" stop-color="#002A37"/>
</linearGradient>
<linearGradient id="paint1_linear_5_11" x1="924" y1="924" x2="257" y2="100" gradientUnits="userSpaceOnUse">
<stop offset="0.427083" stop-color="#FFD43A"/>
<stop offset="1" stop-color="#FFECAA"/>
</linearGradient>
<linearGradient id="paint2_linear_5_11" x1="100" y1="100" x2="766" y2="924" gradientUnits="userSpaceOnUse">
<stop offset="0.286458" stop-color="#5A88FF"/>
<stop offset="1" stop-color="#0034BA"/>
</linearGradient>
<linearGradient id="paint3_linear_5_11" x1="512" y1="100" x2="512" y2="924" gradientUnits="userSpaceOnUse">
<stop stop-color="white"/>
<stop offset="1" stop-color="white" stop-opacity="0.3"/>
</linearGradient>
<linearGradient id="paint4_linear_5_11" x1="257" y1="257" x2="767" y2="767" gradientUnits="userSpaceOnUse">
<stop stop-color="#0034BA"/>
<stop offset="0.411458" stop-color="#484848" stop-opacity="0.26"/>
<stop offset="0.526042" stop-color="white" stop-opacity="0.38"/>
<stop offset="1" stop-color="#FFECAA"/>
</linearGradient>
<linearGradient id="paint5_linear_5_11" x1="452" y1="349" x2="452" y2="675" gradientUnits="userSpaceOnUse">
<stop offset="0.276042" stop-color="#7DA2FF"/>
<stop offset="0.735025" stop-color="#5A88FF"/>
<stop offset="1" stop-color="#0034BA"/>
</linearGradient>
<linearGradient id="paint6_linear_5_11" x1="505" y1="566" x2="533.5" y2="594" gradientUnits="userSpaceOnUse">
<stop stop-color="#7DA2FF"/>
<stop offset="1" stop-color="#0034BA"/>
</linearGradient>
<linearGradient id="paint7_linear_5_11" x1="438.14" y1="363.14" x2="538" y2="461" gradientUnits="userSpaceOnUse">
<stop stop-color="#7DA2FF"/>
<stop offset="1" stop-color="#0034BA" stop-opacity="0"/>
</linearGradient>
</defs>
</svg>
