<svg width="1152" height="128" viewBox="0 0 1152 128" fill="none" xmlns="http://www.w3.org/2000/svg">
<path d="M1053 98V99H1054H1139C1140.66 99 1142 100.343 1142 102V115C1142 116.657 1140.66 118 1139 118H1037C1035.34 118 1034 116.657 1034 115V13C1034 11.3431 1035.34 10 1037 10H1050C1051.66 10 1053 11.3431 1053 13V98Z" fill="white" stroke="black" stroke-width="2"/>
<path d="M925 98V99H926H1011C1012.66 99 1014 100.343 1014 102V115C1014 116.657 1012.66 118 1011 118H909C907.343 118 906 116.657 906 115V13C906 11.3431 907.343 10 909 10H922C923.657 10 925 11.3431 925 13V98Z" fill="white" stroke="black" stroke-width="2"/>
<path d="M798 29H797V30V53V54H798H883C884.657 54 886 55.3431 886 57V70C886 71.6569 884.657 73 883 73H798H797V74V98V99H798H883C884.657 99 886 100.343 886 102V115C886 116.657 884.657 118 883 118H781C779.343 118 778 116.657 778 115V13C778 11.3431 779.343 10 781 10H883C884.657 10 886 11.3431 886 13V26C886 27.6569 884.657 29 883 29H798Z" fill="white" stroke="black" stroke-width="2"/>
<path d="M669 54V55H670H738H739V54V13C739 11.3431 740.343 10 742 10H755C756.657 10 758 11.3431 758 13V115C758 116.657 756.657 118 755 118H742C740.343 118 739 116.657 739 115V75V74H738H670H669V75V115C669 116.657 667.657 118 666 118H653C651.343 118 650 116.657 650 115V13C650 11.3431 651.343 10 653 10H666C667.657 10 669 11.3431 669 13V54Z" fill="white" stroke="black" stroke-width="2"/>
<path d="M542 29H541V30V54V55H542H627C628.657 55 630 56.3431 630 58V115C630 116.657 628.657 118 627 118H525C523.343 118 522 116.657 522 115V102C522 100.343 523.343 99 525 99H610H611V98V75V74H610H525C523.343 74 522 72.6569 522 71V13C522 11.3431 523.343 10 525 10H627C628.657 10 630 11.3431 630 13V26C630 27.6569 628.657 29 627 29H542Z" fill="white" stroke="black" stroke-width="2"/>
<path d="M394 13C394 11.3431 395.343 10 397 10H410C411.657 10 413 11.3431 413 13V115C413 116.657 411.657 118 410 118H397C395.343 118 394 116.657 394 115V13Z" fill="white" stroke="black" stroke-width="2"/>
<path d="M353.253 85.9653L355 87.9251V85.3V13C355 11.3431 356.343 10 358 10H371C372.657 10 374 11.3431 374 13V115C374 116.657 372.657 118 371 118H355.793C354.938 118 354.123 117.635 353.554 116.996L286.747 42.0347L285 40.0749V42.7V115C285 116.657 283.657 118 282 118H269C267.343 118 266 116.657 266 115V13C266 11.3431 267.343 10 269 10H284.207C285.062 10 285.877 10.3653 286.446 11.004L353.253 85.9653Z" fill="white" stroke="black" stroke-width="2"/>
<path d="M227 30V29H226H203H202V30V115C202 116.657 200.657 118 199 118H186C184.343 118 183 116.657 183 115V30V29H182H158H157V30V115C157 116.657 155.657 118 154 118H141C139.343 118 138 116.657 138 115V13C138 11.3431 139.343 10 141 10H243C244.657 10 246 11.3431 246 13V115C246 116.657 244.657 118 243 118H230C228.343 118 227 116.657 227 115V30Z" fill="white" stroke="black" stroke-width="2"/>
<path d="M119 115C119 117.209 117.209 119 115 119L30 119L19.5 108.5L30 98L98 98L98 30L108.5 19.5L98 9H115C117.209 9 119 10.7909 119 13L119 115Z" fill="#FFD43A"/>
<path d="M9 13C9 10.7909 10.7909 9 13 9H98L108.5 19.5L98 30H30V98L19.5 108.5L30 119H13C10.7909 119 9 117.209 9 115V13Z" fill="#5A88FF"/>
<circle cx="110" cy="14" r="2" fill="white"/>
<circle cx="18" cy="114" r="2" fill="white"/>
<path d="M56 46L74 64L56 82" stroke="#5A88FF" stroke-width="8" stroke-linecap="square"/>
</svg>
