<svg width="1152" height="128" viewBox="0 0 1152 128" fill="none" xmlns="http://www.w3.org/2000/svg">
<path d="M1033 13C1033 10.7909 1034.79 9 1037 9H1050C1052.21 9 1054 10.7909 1054 13V98H1139C1141.21 98 1143 99.7909 1143 102V115C1143 117.209 1141.21 119 1139 119H1037C1034.79 119 1033 117.209 1033 115V13Z" fill="black"/>
<path d="M905 13C905 10.7909 906.791 9 909 9H922C924.209 9 926 10.7909 926 13V98H1011C1013.21 98 1015 99.7909 1015 102V115C1015 117.209 1013.21 119 1011 119H909C906.791 119 905 117.209 905 115V13Z" fill="black"/>
<path d="M781 119C778.791 119 777 117.209 777 115V13C777 10.7909 778.791 9 781 9H883C885.209 9 887 10.7909 887 13V26C887 28.2091 885.209 30 883 30H798V53H883C885.209 53 887 54.7909 887 57V70C887 72.2091 885.209 74 883 74H798V98H883C885.209 98 887 99.7909 887 102V115C887 117.209 885.209 119 883 119H781Z" fill="black"/>
<path d="M649 13C649 10.7909 650.791 9 653 9H666C668.209 9 670 10.7909 670 13V54H738V13C738 10.7909 739.791 9 742 9H755C757.209 9 759 10.7909 759 13V115C759 117.209 757.209 119 755 119H742C739.791 119 738 117.209 738 115V75H670V115C670 117.209 668.209 119 666 119H653C650.791 119 649 117.209 649 115V13Z" fill="black"/>
<path d="M521 13C521 10.7909 522.791 9 525 9H627C629.209 9 631 10.7909 631 13V26C631 28.2091 629.209 30 627 30H542V54H627C629.209 54 631 55.7909 631 58V115C631 117.209 629.209 119 627 119H525C522.791 119 521 117.209 521 115V102C521 99.7909 522.791 98 525 98H610V75H525C522.791 75 521 73.2091 521 71V13Z" fill="black"/>
<path d="M393 13C393 10.7909 394.791 9 397 9H410C412.209 9 414 10.7909 414 13V115C414 117.209 412.209 119 410 119H397C394.791 119 393 117.209 393 115V13Z" fill="black"/>
<path d="M265 13C265 10.7909 266.791 9 269 9H284.207C285.348 9 286.434 9.48705 287.193 10.3387L354 85.3V13C354 10.7909 355.791 9 358 9H371C373.209 9 375 10.7909 375 13V115C375 117.209 373.209 119 371 119H355.793C354.652 119 353.566 118.513 352.807 117.661L286 42.7V115C286 117.209 284.209 119 282 119H269C266.791 119 265 117.209 265 115V13Z" fill="black"/>
<path d="M137 13C137 10.7909 138.791 9 141 9H243C245.209 9 247 10.7909 247 13V115C247 117.209 245.209 119 243 119H230C227.791 119 226 117.209 226 115V30H203V115C203 117.209 201.209 119 199 119H186C183.791 119 182 117.209 182 115V30H158V115C158 117.209 156.209 119 154 119H141C138.791 119 137 117.209 137 115V13Z" fill="black"/>
<path d="M119 115C119 117.209 117.209 119 115 119L30 119L19.5 108.5L30 98L98 98L98 30L108.5 19.5L98 9H115C117.209 9 119 10.7909 119 13L119 115Z" fill="#FFD43A"/>
<path d="M9 13C9 10.7909 10.7909 9 13 9H98L108.5 19.5L98 30H30V98L19.5 108.5L30 119H13C10.7909 119 9 117.209 9 115V13Z" fill="#5A88FF"/>
<circle cx="110" cy="14" r="2" fill="white"/>
<circle cx="18" cy="114" r="2" fill="white"/>
<path d="M56 46L74 64L56 82" stroke="#5A88FF" stroke-width="8" stroke-linecap="square"/>
</svg>
