<svg width="128" height="128" viewBox="0 0 128 128" fill="none" xmlns="http://www.w3.org/2000/svg">
<path d="M9 13C9 10.7909 10.7909 9 13 9H26C28.2091 9 30 10.7909 30 13V53.4999L113.211 11.8944C115.871 10.5646 119 12.4986 119 15.4721V27.5279C119 29.043 118.144 30.4281 116.789 31.1056L30 74.5V53.4999L116.789 96.8945C118.144 97.5721 119 98.9571 119 100.472V112.528C119 115.501 115.871 117.435 113.211 116.106L30 74.5V115C30 117.209 28.2091 119 26 119H13C10.7909 119 9 117.209 9 115V13Z" fill="white"/>
</svg>
